<svg width="154" height="38" viewBox="0 0 154 38" fill="none" xmlns="http://www.w3.org/2000/svg">
<path d="M0 2.03125C0.833333 2.23958 1.6276 2.39583 2.38281 2.5C3.13802 2.60417 3.80208 2.68229 4.375 2.73438C5.05208 2.8125 5.67708 2.83854 6.25 2.8125C6.97917 2.8125 7.89062 2.7474 8.98438 2.61719C10.1042 2.48698 11.25 2.36979 12.4219 2.26562C13.5938 2.13542 14.7135 2.05729 15.7812 2.03125C16.875 1.97917 17.7604 2.04427 18.4375 2.22656C19.1146 2.38281 19.8047 2.63021 20.5078 2.96875C21.237 3.28125 21.901 3.6849 22.5 4.17969C23.099 4.64844 23.5938 5.20833 23.9844 5.85938C24.375 6.48438 24.5964 7.20052 24.6484 8.00781C24.6224 9.02344 24.388 9.97396 23.9453 10.8594C23.5807 11.6146 22.9688 12.3958 22.1094 13.2031C21.25 13.9844 20.013 14.5833 18.3984 15C19.2057 15.1042 19.8958 15.2865 20.4688 15.5469C21.0677 15.7812 21.5755 16.0677 21.9922 16.4062C22.4349 16.7188 22.7865 17.0703 23.0469 17.4609C23.3333 17.8516 23.5547 18.2422 23.7109 18.6328C24.1016 19.5443 24.2839 20.5599 24.2578 21.6797C24.1016 23.138 23.8021 24.2969 23.3594 25.1562C22.9427 26.0156 22.4609 26.6797 21.9141 27.1484C21.3672 27.6172 20.8073 27.9427 20.2344 28.125C19.6615 28.3073 19.1406 28.4505 18.6719 28.5547C18.2031 28.6589 17.6302 28.7109 16.9531 28.7109C16.276 28.7109 15.5469 28.6979 14.7656 28.6719C14.0104 28.6198 13.2292 28.5807 12.4219 28.5547C11.6146 28.5026 10.8464 28.5026 10.1172 28.5547C9.51823 28.6068 8.78906 28.6589 7.92969 28.7109C7.20052 28.763 6.28906 28.8281 5.19531 28.9062C4.10156 28.9583 2.82552 29.0234 1.36719 29.1016C1.65365 28.8932 1.88802 28.6589 2.07031 28.3984C2.27865 28.112 2.44792 27.8646 2.57812 27.6562C2.70833 27.3958 2.82552 27.1484 2.92969 26.9141C3.00781 26.7057 3.07292 26.1328 3.125 25.1953C3.17708 24.2578 3.21615 23.138 3.24219 21.8359C3.26823 20.5078 3.28125 19.0885 3.28125 17.5781C3.30729 16.0417 3.29427 14.5703 3.24219 13.1641C3.21615 11.7318 3.16406 10.4688 3.08594 9.375C3.03385 8.25521 2.95573 7.44792 2.85156 6.95312C2.69531 6.40625 2.48698 5.84635 2.22656 5.27344C2.01823 4.77865 1.71875 4.24479 1.32812 3.67188C0.963542 3.09896 0.520833 2.55208 0 2.03125ZM8.24219 6.01562C8.24219 6.11979 8.25521 6.47135 8.28125 7.07031C8.30729 7.59115 8.33333 8.39844 8.35938 9.49219C8.41146 10.5599 8.47656 12.0833 8.55469 14.0625C9.20573 14.349 9.84375 14.5052 10.4688 14.5312C11.0938 14.5312 11.6536 14.5052 12.1484 14.4531C12.7214 14.375 13.2682 14.2448 13.7891 14.0625C14.4922 13.776 15.0391 13.3073 15.4297 12.6562C15.8464 12.0052 16.1198 11.3281 16.25 10.625C16.4062 9.89583 16.4453 9.21875 16.3672 8.59375C16.2891 7.94271 16.1198 7.47396 15.8594 7.1875C15.3646 6.74479 14.7526 6.38021 14.0234 6.09375C13.3984 5.85938 12.6042 5.70312 11.6406 5.625C10.7031 5.52083 9.57031 5.65104 8.24219 6.01562ZM8.04688 24.5312C9.01042 25.026 9.85677 25.3516 10.5859 25.5078C11.3151 25.6641 11.9271 25.7422 12.4219 25.7422C12.9948 25.7422 13.4896 25.6641 13.9062 25.5078C14.401 25.2734 14.8828 24.9609 15.3516 24.5703C15.8464 24.1536 16.2109 23.6719 16.4453 23.125C16.7057 22.5521 16.8099 21.9271 16.7578 21.25C16.7057 20.5469 16.4062 19.7786 15.8594 18.9453C15.3646 18.3464 14.7656 17.8776 14.0625 17.5391C13.4375 17.2526 12.6432 17.0703 11.6797 16.9922C10.7422 16.9141 9.58333 17.1354 8.20312 17.6562L8.04688 24.5312ZM27.3438 31.0547C27.6042 30.6641 27.8125 30.2995 27.9688 29.9609C28.125 29.6224 28.2552 29.3359 28.3594 29.1016C28.4635 28.8151 28.5417 28.5547 28.5938 28.3203C28.6198 28.1641 28.6328 27.7083 28.6328 26.9531C28.6328 26.1979 28.6068 25.2474 28.5547 24.1016C28.5286 22.9557 28.4896 21.6667 28.4375 20.2344C28.4115 18.8021 28.3594 17.3438 28.2812 15.8594C28.2292 14.375 28.1641 12.9297 28.0859 11.5234C28.0339 10.1172 27.9818 8.85417 27.9297 7.73438C27.8776 6.58854 27.8255 5.65104 27.7734 4.92188C27.7214 4.19271 27.6823 3.77604 27.6562 3.67188C27.6042 3.51562 27.513 3.35938 27.3828 3.20312C27.1224 2.89062 26.6797 2.59115 26.0547 2.30469C27.3828 1.96615 28.3984 1.69271 29.1016 1.48438C29.5182 1.38021 29.8828 1.27604 30.1953 1.17188C30.4818 1.06771 30.7682 0.963542 31.0547 0.859375C31.2891 0.755208 31.5495 0.638021 31.8359 0.507812C32.1224 0.351562 32.3828 0.182292 32.6172 0C32.487 0.755208 32.3828 1.48438 32.3047 2.1875C32.2266 2.89062 32.1615 3.54167 32.1094 4.14062C32.0573 4.81771 32.0312 5.46875 32.0312 6.09375C31.901 7.36979 31.8229 8.76302 31.7969 10.2734C31.7969 11.7578 31.8099 13.2682 31.8359 14.8047C31.862 16.3411 31.9141 17.8385 31.9922 19.2969C32.0703 20.7552 32.1484 22.0833 32.2266 23.2812C32.3307 24.4531 32.4219 25.4557 32.5 26.2891C32.6042 27.0964 32.6823 27.6172 32.7344 27.8516C32.8385 28.2422 32.9427 28.6198 33.0469 28.9844C33.151 29.2969 33.2682 29.6224 33.3984 29.9609C33.5286 30.3255 33.6849 30.612 33.8672 30.8203H30.0781C29.7396 30.8203 29.4141 30.8333 29.1016 30.8594C28.8151 30.8854 28.5156 30.9115 28.2031 30.9375C27.8906 30.9635 27.6042 31.0026 27.3438 31.0547ZM45.7422 12.4609C46.4193 12.4609 47.1224 12.5911 47.8516 12.8516C48.5807 13.0859 49.2839 13.3984 49.9609 13.7891C50.638 14.1536 51.25 14.5573 51.7969 15C52.3698 15.4167 52.8385 15.8203 53.2031 16.2109C53.8542 16.9141 54.2969 17.8646 54.5312 19.0625C54.7917 20.2344 54.8438 21.4453 54.6875 22.6953C54.5312 23.9193 54.1667 25.0781 53.5938 26.1719C53.0208 27.2656 52.2266 28.0729 51.2109 28.5938C50.4818 28.9583 49.7656 29.2448 49.0625 29.4531C48.3594 29.6615 47.6823 29.8177 47.0312 29.9219C46.3802 30.026 45.7682 30.0781 45.1953 30.0781C44.6224 30.0781 44.1276 30.0651 43.7109 30.0391C42.9297 29.987 42.1094 29.7135 41.25 29.2188C40.4167 28.724 39.6224 28.112 38.8672 27.3828C38.138 26.6536 37.513 25.8594 36.9922 25C36.4714 24.1146 36.1589 23.2812 36.0547 22.5C35.8984 21.4323 35.8724 20.3125 35.9766 19.1406C36.0807 17.9688 36.4583 16.888 37.1094 15.8984C37.7865 14.9089 38.8021 14.0885 40.1562 13.4375C41.5365 12.7865 43.3984 12.4609 45.7422 12.4609ZM44.4531 27.6172C44.7396 27.6693 45.1302 27.6042 45.625 27.4219C46.1198 27.2135 46.6016 26.888 47.0703 26.4453C47.5651 26.0026 47.9948 25.4427 48.3594 24.7656C48.75 24.0625 48.9844 23.2161 49.0625 22.2266C49.1406 21.263 49.1406 20.3776 49.0625 19.5703C49.0104 18.763 48.8932 18.0599 48.7109 17.4609C48.5286 16.8359 48.3203 16.3281 48.0859 15.9375C47.8516 15.5469 47.6042 15.2734 47.3438 15.1172C46.901 14.8828 46.3672 14.7005 45.7422 14.5703C45.1172 14.4141 44.5833 14.4401 44.1406 14.6484C43.9323 14.7526 43.6719 14.974 43.3594 15.3125C43.0469 15.651 42.7344 16.0807 42.4219 16.6016C42.1094 17.0964 41.8229 17.6693 41.5625 18.3203C41.3281 18.9714 41.1589 19.6484 41.0547 20.3516C40.9505 21.0547 40.9245 21.8099 40.9766 22.6172C41.0547 23.4245 41.224 24.1927 41.4844 24.9219C41.7448 25.625 42.1094 26.237 42.5781 26.7578C43.0729 27.2526 43.6979 27.5391 44.4531 27.6172ZM75 13.3984C74.9219 12.8776 74.8568 12.4479 74.8047 12.1094C74.7526 11.7448 74.7005 11.4583 74.6484 11.25C74.5964 10.9896 74.5573 10.7943 74.5312 10.6641C74.4792 10.5339 74.4141 10.3906 74.3359 10.2344C74.2839 10.1042 74.1927 9.94792 74.0625 9.76562C73.9583 9.58333 73.8281 9.375 73.6719 9.14062C74.0104 9.24479 74.349 9.3099 74.6875 9.33594C75.0521 9.36198 75.3906 9.38802 75.7031 9.41406C76.0417 9.4401 76.3932 9.4401 76.7578 9.41406C77.1224 9.41406 77.5391 9.40104 78.0078 9.375C78.4245 9.34896 78.9193 9.33594 79.4922 9.33594C80.0911 9.3099 80.7682 9.27083 81.5234 9.21875C81.0807 9.32292 80.7031 9.50521 80.3906 9.76562C80.1042 10 79.8568 10.2604 79.6484 10.5469C79.4141 10.8594 79.2188 11.1979 79.0625 11.5625C78.9323 11.901 78.8542 12.5521 78.8281 13.5156C78.8021 14.4531 78.8021 15.5729 78.8281 16.875C78.8542 18.151 78.8802 19.5312 78.9062 21.0156C78.9583 22.5 78.9844 23.9193 78.9844 25.2734C79.0104 26.6276 79.0104 27.8646 78.9844 28.9844C78.9583 30.0781 78.8932 30.8854 78.7891 31.4062C78.4245 33.0469 77.7474 34.375 76.7578 35.3906C75.7682 36.4323 74.4661 36.9922 72.8516 37.0703C70.8984 37.1484 69.349 36.9661 68.2031 36.5234C67.0833 36.0807 66.2109 35.5339 65.5859 34.8828C64.9609 34.2578 64.4922 33.6198 64.1797 32.9688C63.8672 32.3177 63.5417 31.8229 63.2031 31.4844C62.8906 31.1979 62.5781 30.9245 62.2656 30.6641C61.9792 30.4557 61.6797 30.2474 61.3672 30.0391C61.0807 29.8307 60.7943 29.7005 60.5078 29.6484C61.263 29.6745 61.9401 29.6875 62.5391 29.6875C63.138 29.6875 63.6458 29.6875 64.0625 29.6875C64.5312 29.6875 64.9479 29.6745 65.3125 29.6484H66.5625H70.1172C69.5964 29.8047 69.2057 29.974 68.9453 30.1562C68.6849 30.3646 68.5026 30.5729 68.3984 30.7812C68.2943 31.0156 68.2422 31.25 68.2422 31.4844C68.3464 32.1094 68.6849 32.5651 69.2578 32.8516C69.8307 33.138 70.612 33.3073 71.6016 33.3594C72.5651 33.4115 73.2292 33.3854 73.5938 33.2812C73.9583 33.2031 74.2448 33.0469 74.4531 32.8125C74.8698 32.1875 75.2214 31.3802 75.5078 30.3906C75.7161 29.5573 75.8594 28.4766 75.9375 27.1484C76.0417 25.7943 75.9245 24.1406 75.5859 22.1875C74.7526 23.3333 73.7891 24.1927 72.6953 24.7656C71.6016 25.3385 70.5599 25.7552 69.5703 26.0156C68.3984 26.3021 67.2135 26.4453 66.0156 26.4453C62.8646 26.3151 60.5078 25.5859 58.9453 24.2578C57.3828 22.9297 56.6667 21.1458 56.7969 18.9062C56.875 17.7865 57.2135 16.6667 57.8125 15.5469C58.4375 14.4271 59.2448 13.4245 60.2344 12.5391C61.25 11.6536 62.4089 10.9505 63.7109 10.4297C65.013 9.90885 66.3672 9.6875 67.7734 9.76562C68.8411 9.86979 69.8438 10.0651 70.7812 10.3516C71.5885 10.612 72.3828 10.9766 73.1641 11.4453C73.9714 11.9141 74.5833 12.5651 75 13.3984ZM62.5781 17.3047C62.4219 18.3203 62.487 19.2708 62.7734 20.1562C63.0859 21.0417 63.5156 21.8099 64.0625 22.4609C64.6094 23.0859 65.2214 23.5807 65.8984 23.9453C66.5755 24.2839 67.2135 24.4401 67.8125 24.4141C69.0625 24.388 70.1432 23.8281 71.0547 22.7344C71.9661 21.6146 72.513 19.9479 72.6953 17.7344C72.7734 16.6406 72.6302 15.7031 72.2656 14.9219C71.9271 14.1146 71.4974 13.4635 70.9766 12.9688C70.4557 12.474 69.9089 12.1224 69.3359 11.9141C68.763 11.7057 68.3073 11.6146 67.9688 11.6406C67.5 11.6927 66.9792 11.8359 66.4062 12.0703C65.8594 12.2786 65.3255 12.6042 64.8047 13.0469C64.2839 13.4635 63.8151 14.0234 63.3984 14.7266C63.0078 15.4297 62.7344 16.2891 62.5781 17.3047ZM99.1016 7.65625C98.8672 8.22917 98.6589 8.75 98.4766 9.21875C98.3203 9.6875 98.1771 10.1042 98.0469 10.4688C97.9167 10.8854 97.7995 11.25 97.6953 11.5625C97.5911 11.9271 97.474 12.3438 97.3438 12.8125C97.2135 13.2292 97.0443 13.75 96.8359 14.375C96.6536 14.974 96.4323 15.6901 96.1719 16.5234C95.9635 15.2734 95.5859 14.2839 95.0391 13.5547C94.4922 12.7995 93.9323 12.2135 93.3594 11.7969C92.6823 11.3281 91.9531 10.9896 91.1719 10.7812C89.7656 10.5469 88.75 10.5729 88.125 10.8594C87.5 11.1458 87.0833 11.5104 86.875 11.9531C86.7708 12.1354 86.6536 12.3698 86.5234 12.6562C86.4193 12.9167 86.3281 13.1901 86.25 13.4766C86.1979 13.763 86.1849 14.0495 86.2109 14.3359C86.237 14.6224 86.3542 14.8568 86.5625 15.0391C86.6927 15.1693 87.0312 15.3516 87.5781 15.5859C88.125 15.7943 88.776 16.0417 89.5312 16.3281C90.3125 16.5885 91.1328 16.875 91.9922 17.1875C92.8776 17.5 93.7109 17.8125 94.4922 18.125C95.2734 18.4375 95.9505 18.75 96.5234 19.0625C97.0964 19.375 97.474 19.6615 97.6562 19.9219C97.8125 20.1823 97.9818 20.5339 98.1641 20.9766C98.3724 21.3932 98.5156 21.862 98.5938 22.3828C98.6979 22.8776 98.724 23.3984 98.6719 23.9453C98.6458 24.4661 98.5026 24.987 98.2422 25.5078C97.9818 26.0286 97.5651 26.5104 96.9922 26.9531C96.4453 27.3958 95.7031 27.7604 94.7656 28.0469C93.6719 28.3854 92.6172 28.4766 91.6016 28.3203C90.5859 28.1641 89.6484 27.9297 88.7891 27.6172C87.9557 27.3047 87.2266 27.0052 86.6016 26.7188C85.9766 26.4062 85.5339 26.276 85.2734 26.3281C84.987 26.3802 84.6615 26.5234 84.2969 26.7578C83.9323 26.9922 83.5807 27.2396 83.2422 27.5C82.9297 27.7344 82.6562 27.9557 82.4219 28.1641C82.1875 28.3464 82.0703 28.4115 82.0703 28.3594C82.0703 28.3073 82.1094 28.151 82.1875 27.8906C82.2917 27.6302 82.3958 27.3177 82.5 26.9531C82.6302 26.5625 82.7474 26.1458 82.8516 25.7031C82.9818 25.2344 83.0729 24.7917 83.125 24.375C83.1771 24.0365 83.2422 23.6198 83.3203 23.125C83.3724 22.6823 83.4375 22.1484 83.5156 21.5234C83.6198 20.8724 83.737 20.0911 83.8672 19.1797C83.9974 19.8568 84.1797 20.4427 84.4141 20.9375C84.6745 21.4323 84.9219 21.862 85.1562 22.2266C85.4427 22.6432 85.7161 22.9948 85.9766 23.2812C86.3672 23.6458 86.8229 23.9844 87.3438 24.2969C87.8906 24.6094 88.4375 24.8828 88.9844 25.1172C89.5312 25.3255 90.0521 25.4557 90.5469 25.5078C91.0417 25.5599 91.4583 25.5078 91.7969 25.3516C92.1354 25.1953 92.4219 24.9089 92.6562 24.4922C92.9167 24.0755 93.099 23.6198 93.2031 23.125C93.3073 22.6302 93.3464 22.1615 93.3203 21.7188C93.2943 21.25 93.1771 20.8724 92.9688 20.5859C92.8125 20.4036 92.4479 20.1693 91.875 19.8828C91.3281 19.5964 90.6641 19.2839 89.8828 18.9453C89.1276 18.6068 88.3203 18.2552 87.4609 17.8906C86.6276 17.526 85.8333 17.1615 85.0781 16.7969C84.349 16.4062 83.737 16.0417 83.2422 15.7031C82.7734 15.3385 82.513 15.013 82.4609 14.7266C82.4089 14.3099 82.3698 13.8542 82.3438 13.3594C82.3177 12.8385 82.3438 12.3307 82.4219 11.8359C82.526 11.3151 82.7083 10.8203 82.9688 10.3516C83.2552 9.88281 83.6719 9.49219 84.2188 9.17969C84.5833 8.97135 85.0651 8.8151 85.6641 8.71094C86.263 8.60677 86.9271 8.55469 87.6562 8.55469C88.3854 8.52865 89.1406 8.55469 89.9219 8.63281C90.7031 8.6849 91.4453 8.76302 92.1484 8.86719C92.8776 8.94531 93.5286 9.04948 94.1016 9.17969C94.7005 9.3099 95.1562 9.42708 95.4688 9.53125C95.8333 9.66146 96.224 9.67448 96.6406 9.57031C97.0052 9.49219 97.3958 9.32292 97.8125 9.0625C98.2292 8.80208 98.6589 8.33333 99.1016 7.65625ZM100.039 5.35156C100.82 5.42969 101.471 5.49479 101.992 5.54688C102.539 5.59896 102.982 5.63802 103.32 5.66406C103.711 5.6901 104.023 5.70312 104.258 5.70312C104.492 5.72917 104.805 5.72917 105.195 5.70312C105.534 5.67708 105.977 5.65104 106.523 5.625C107.07 5.57292 107.76 5.49479 108.594 5.39062C108.411 5.65104 108.268 5.88542 108.164 6.09375C108.06 6.27604 107.969 6.44531 107.891 6.60156L107.656 7.07031C107.604 7.22656 107.552 7.38281 107.5 7.53906C107.448 7.66927 107.396 7.82552 107.344 8.00781C107.318 8.1901 107.292 8.38542 107.266 8.59375H113.281L112.734 11.7578L107.227 11.4453C107.096 12.7734 107.005 13.8021 106.953 14.5312C106.901 15.2604 106.849 15.7943 106.797 16.1328L106.719 16.8359C106.641 17.8255 106.562 18.9062 106.484 20.0781C106.406 21.224 106.38 22.2917 106.406 23.2812C106.432 24.2708 106.523 25.1042 106.68 25.7812C106.836 26.4323 107.109 26.7578 107.5 26.7578C107.891 26.7578 108.255 26.6536 108.594 26.4453C108.932 26.237 109.219 25.9896 109.453 25.7031C109.714 25.4167 109.909 25.1302 110.039 24.8438C110.169 24.5312 110.234 24.2969 110.234 24.1406C110.234 23.9844 110.195 23.8021 110.117 23.5938C109.987 23.2031 109.753 22.7083 109.414 22.1094C110.169 22.2917 110.833 22.474 111.406 22.6562C111.693 22.7604 111.953 22.8646 112.188 22.9688C112.448 23.0729 112.747 23.1901 113.086 23.3203C113.372 23.4505 113.737 23.6068 114.18 23.7891C114.622 23.9714 115.143 24.1927 115.742 24.4531C115.169 24.5573 114.753 24.7266 114.492 24.9609C114.336 25.0651 114.219 25.1823 114.141 25.3125C113.958 25.599 113.75 25.9896 113.516 26.4844C113.281 26.9531 112.93 27.4219 112.461 27.8906C111.992 28.3594 111.354 28.776 110.547 29.1406C109.766 29.5052 108.711 29.7135 107.383 29.7656C106.003 29.8177 104.948 29.5833 104.219 29.0625C103.516 28.5417 102.995 27.9427 102.656 27.2656C102.344 26.5625 102.161 25.8724 102.109 25.1953C102.057 24.5182 102.018 24.0625 101.992 23.8281C101.966 23.5938 101.966 23.0078 101.992 22.0703C102.018 21.1328 102.057 20.1042 102.109 18.9844C102.161 17.8385 102.214 16.7448 102.266 15.7031C102.318 14.6354 102.344 13.8542 102.344 13.3594C102.344 13.099 102.357 12.8255 102.383 12.5391C102.383 12.3047 102.383 12.0573 102.383 11.7969C102.409 11.5104 102.422 11.237 102.422 10.9766L96.7578 10.9375L96.5234 8.71094L102.227 8.86719C102.174 8.58073 102.109 8.32031 102.031 8.08594C101.979 7.82552 101.927 7.61719 101.875 7.46094C101.797 7.27865 101.719 7.1224 101.641 6.99219C101.536 6.86198 101.419 6.71875 101.289 6.5625C101.159 6.43229 100.99 6.26302 100.781 6.05469C100.573 5.84635 100.326 5.61198 100.039 5.35156ZM117.07 14.1406C117.201 13.9844 117.279 13.6979 117.305 13.2812C117.357 12.8385 117.461 12.3438 117.617 11.7969C117.799 11.25 118.099 10.6771 118.516 10.0781C118.932 9.47917 119.609 8.91927 120.547 8.39844C121.458 7.8776 122.344 7.5651 123.203 7.46094C124.062 7.35677 124.883 7.39583 125.664 7.57812C126.445 7.76042 127.174 8.04688 127.852 8.4375C128.555 8.82812 129.193 9.25781 129.766 9.72656C130.156 10.0391 130.469 10.4948 130.703 11.0938C130.938 11.6667 131.12 12.3177 131.25 13.0469C131.38 13.776 131.471 14.5443 131.523 15.3516C131.602 16.1328 131.654 16.901 131.68 17.6562C131.706 18.3854 131.719 19.0625 131.719 19.6875C131.745 20.2865 131.797 20.7812 131.875 21.1719C131.979 21.7448 132.161 22.2396 132.422 22.6562C132.682 23.0469 132.969 23.3854 133.281 23.6719C133.594 23.9323 133.906 24.1406 134.219 24.2969C134.531 24.4531 134.805 24.5703 135.039 24.6484C135.195 24.7266 135.339 24.7786 135.469 24.8047C135.729 24.9089 135.911 24.9089 136.016 24.8047C135.859 25.1693 135.716 25.4818 135.586 25.7422C135.456 26.0026 135.352 26.224 135.273 26.4062C135.169 26.6146 135.078 26.7839 135 26.9141C134.922 27.0703 134.831 27.2135 134.727 27.3438C134.648 27.474 134.544 27.6172 134.414 27.7734C134.284 27.9297 134.154 28.099 134.023 28.2812C133.685 28.151 133.359 27.9948 133.047 27.8125C132.76 27.6302 132.5 27.4609 132.266 27.3047C131.979 27.1224 131.719 26.9401 131.484 26.7578C131.25 26.5755 131.029 26.3672 130.82 26.1328C130.638 25.9245 130.443 25.7031 130.234 25.4688C130.052 25.2344 129.896 24.974 129.766 24.6875C129.609 25.026 129.232 25.5078 128.633 26.1328C128.06 26.7578 127.305 27.3307 126.367 27.8516C125.43 28.3464 124.336 28.6979 123.086 28.9062C121.862 29.1146 120.508 28.9714 119.023 28.4766C118.372 28.2682 117.76 27.9688 117.188 27.5781C116.615 27.1615 116.12 26.6667 115.703 26.0938C115.312 25.5208 115.026 24.8698 114.844 24.1406C114.688 23.3854 114.701 22.5521 114.883 21.6406C115.065 20.7292 115.391 19.9609 115.859 19.3359C116.328 18.7109 116.888 18.2031 117.539 17.8125C118.19 17.4219 118.919 17.1224 119.727 16.9141C120.534 16.7057 121.367 16.5625 122.227 16.4844C122.904 16.4583 123.581 16.4974 124.258 16.6016C124.831 16.7057 125.43 16.901 126.055 17.1875C126.68 17.4479 127.214 17.8516 127.656 18.3984C127.63 17.0182 127.578 15.9245 127.5 15.1172C127.448 14.2839 127.396 13.6458 127.344 13.2031C127.24 12.6823 127.148 12.3177 127.07 12.1094C126.94 11.9271 126.797 11.7188 126.641 11.4844C126.51 11.25 126.341 11.0417 126.133 10.8594C125.924 10.651 125.664 10.4818 125.352 10.3516C125.039 10.2214 124.674 10.1693 124.258 10.1953C123.815 10.2214 123.464 10.3385 123.203 10.5469C122.943 10.7552 122.734 11.0026 122.578 11.2891C122.448 11.5495 122.37 11.8359 122.344 12.1484C122.318 12.4609 122.331 12.7344 122.383 12.9688C122.435 13.125 122.513 13.2943 122.617 13.4766C122.721 13.6328 122.865 13.8021 123.047 13.9844C123.229 14.1667 123.477 14.3229 123.789 14.4531C123.19 14.5312 122.656 14.5964 122.188 14.6484C121.719 14.6745 121.315 14.7135 120.977 14.7656C120.586 14.8177 120.247 14.8568 119.961 14.8828C119.674 14.9089 119.336 14.9609 118.945 15.0391C118.607 15.0911 118.19 15.1562 117.695 15.2344C117.201 15.3125 116.628 15.4167 115.977 15.5469C116.133 15.3646 116.276 15.1953 116.406 15.0391C116.536 14.8568 116.654 14.7005 116.758 14.5703C116.862 14.4141 116.966 14.2708 117.07 14.1406ZM122.93 18.7891C122.461 18.8151 121.992 18.9323 121.523 19.1406C121.055 19.3229 120.638 19.5964 120.273 19.9609C119.909 20.2995 119.596 20.7031 119.336 21.1719C119.102 21.6146 118.984 22.1094 118.984 22.6562C118.984 23.2031 119.115 23.6849 119.375 24.1016C119.661 24.4922 120.026 24.8177 120.469 25.0781C120.938 25.3385 121.432 25.4948 121.953 25.5469C122.5 25.599 123.034 25.5469 123.555 25.3906C124.049 25.2083 124.518 24.9219 124.961 24.5312C125.404 24.1146 125.781 23.6719 126.094 23.2031C126.406 22.7083 126.628 22.2266 126.758 21.7578C126.888 21.263 126.901 20.8594 126.797 20.5469C126.589 19.8698 126.12 19.401 125.391 19.1406C124.661 18.8542 123.841 18.737 122.93 18.7891ZM135.234 11.25C135.729 11.276 136.172 11.2891 136.562 11.2891C136.979 11.263 137.331 11.237 137.617 11.2109C137.956 11.1849 138.255 11.1589 138.516 11.1328C138.906 11.0807 139.31 11.0156 139.727 10.9375C140.091 10.8854 140.469 10.8203 140.859 10.7422C141.276 10.638 141.68 10.5208 142.07 10.3906C141.914 10.7812 141.784 11.1198 141.68 11.4062C141.576 11.6927 141.497 11.9401 141.445 12.1484C141.367 12.3828 141.328 12.5781 141.328 12.7344C141.302 12.9167 141.289 13.138 141.289 13.3984C141.263 13.8411 141.263 14.5573 141.289 15.5469C142.643 14.375 143.776 13.4635 144.688 12.8125C145.625 12.1615 146.367 11.6536 146.914 11.2891C147.565 10.8724 148.073 10.599 148.438 10.4688C149.401 10.3125 150.247 10.5339 150.977 11.1328C151.289 11.3932 151.589 11.7448 151.875 12.1875C152.161 12.6042 152.409 13.1641 152.617 13.8672C152.826 14.5703 152.982 15.4167 153.086 16.4062C153.19 17.3698 153.203 18.5286 153.125 19.8828C152.578 19.9349 152.083 19.987 151.641 20.0391C151.224 20.0911 150.872 20.1302 150.586 20.1562C150.247 20.2083 149.935 20.2344 149.648 20.2344L148.594 20.3516C148.229 20.4036 147.773 20.4557 147.227 20.5078C146.706 20.5339 146.068 20.5859 145.312 20.6641C146.406 19.7786 147.109 19.0104 147.422 18.3594C147.76 17.6823 147.904 17.1224 147.852 16.6797C147.799 16.1849 147.565 15.7552 147.148 15.3906C146.654 15.1042 146.12 15 145.547 15.0781C145.052 15.1302 144.479 15.3516 143.828 15.7422C143.177 16.1328 142.487 16.862 141.758 17.9297C141.81 19.5964 141.862 20.9766 141.914 22.0703C141.992 23.1641 142.057 24.0495 142.109 24.7266C142.188 25.5078 142.253 26.1198 142.305 26.5625C142.383 26.9531 142.539 27.3698 142.773 27.8125C142.956 28.1771 143.216 28.5807 143.555 29.0234C143.893 29.4661 144.336 29.9089 144.883 30.3516C143.737 30.2995 142.799 30.2995 142.07 30.3516C141.628 30.3776 141.237 30.4036 140.898 30.4297C140.534 30.4818 140.143 30.5339 139.727 30.5859C139.362 30.638 138.932 30.6901 138.438 30.7422C137.969 30.8203 137.448 30.8984 136.875 30.9766C137.083 30.6901 137.253 30.3516 137.383 29.9609C137.513 29.5964 137.617 29.2448 137.695 28.9062C137.799 28.5156 137.878 28.112 137.93 27.6953C137.956 27.3307 137.969 26.7839 137.969 26.0547C137.995 25.3255 137.982 24.5052 137.93 23.5938C137.904 22.6562 137.865 21.6927 137.812 20.7031C137.76 19.6875 137.695 18.737 137.617 17.8516C137.539 16.9661 137.448 16.1979 137.344 15.5469C137.266 14.8698 137.174 14.401 137.07 14.1406C136.94 13.8281 136.784 13.5156 136.602 13.2031C136.445 12.9167 136.25 12.6172 136.016 12.3047C135.781 11.9661 135.521 11.6146 135.234 11.25Z" fill="black"/>
</svg>
